<?xml version="1.0" standalone="no"?>
<!DOCTYPE svg PUBLIC "-//W3C//DTD SVG 20010904//EN"
 "http://www.w3.org/TR/2001/REC-SVG-20010904/DTD/svg10.dtd">
<svg version="1.0" xmlns="http://www.w3.org/2000/svg"
 width="686.000000pt" height="789.000000pt" viewBox="0 0 686.000000 789.000000"
 preserveAspectRatio="xMidYMid meet">
<metadata>
Created by potrace 1.16, written by Peter Selinger 2001-2019
</metadata>
<g transform="translate(0.000000,789.000000) scale(0.100000,-0.100000)"
fill="#000000" stroke="none">
<path d="M0 3905 l0 -3905 3430 0 3430 0 0 3905 0 3905 -3430 0 -3430 0 0
-3905z m4799 2511 c141 -134 154 -143 184 -123 14 9 27 33 35 65 20 75 68 112
147 112 81 0 177 -67 219 -152 54 -109 15 -209 -95 -238 -46 -13 -69 -34 -69
-64 0 -22 13 -36 168 -179 85 -79 83 -112 -16 -220 -115 -128 -157 -135 -186
-33 -22 74 -64 110 -121 104 -113 -13 -216 -160 -171 -246 14 -27 75 -62 108
-62 21 0 48 -33 48 -57 0 -23 -92 -133 -110 -133 -4 0 -11 15 -14 34 -9 47
-73 142 -134 198 -103 96 -294 200 -592 323 -91 37 -169 71 -173 75 -5 5 -4
32 2 63 11 50 19 61 100 141 95 93 123 104 159 65 11 -11 22 -40 26 -65 12
-92 65 -125 157 -98 116 35 191 162 142 244 -20 34 -52 50 -99 50 -39 0 -84
36 -84 67 0 29 207 233 236 233 17 0 58 -32 133 -104z m-1147 -9 c125 -61 210
-170 243 -309 20 -86 19 -136 -7 -240 -22 -88 -22 -89 -3 -107 11 -10 72 -39
135 -66 315 -132 537 -245 647 -327 122 -92 171 -214 123 -307 -39 -78 -94
-94 -384 -110 -147 -9 -172 -12 -189 -29 -11 -11 -19 -31 -19 -44 0 -12 34
-103 76 -200 98 -229 96 -222 54 -243 -18 -10 -147 -78 -287 -153 -265 -143
-289 -160 -317 -239 -7 -21 -13 -64 -14 -95 0 -32 -3 -58 -8 -58 -4 0 -36 41
-72 92 -101 143 -137 169 -209 153 -40 -9 -62 -35 -223 -265 -124 -177 -150
-208 -188 -227 -43 -22 -52 -23 -370 -23 -195 0 -340 4 -363 11 -46 12 -71 48
-69 99 1 26 47 135 143 341 227 489 349 770 349 804 0 58 -19 64 -206 76 -284
16 -339 33 -375 113 -23 51 -24 89 -3 149 44 129 213 239 679 442 110 48 208
94 218 103 21 18 21 42 2 106 -8 27 -15 84 -15 127 0 213 126 390 325 456 25
8 79 12 146 10 99 -2 110 -4 181 -40z m-1633 -2 c159 -87 177 -297 38 -442
l-40 -42 6 -83 c7 -104 36 -215 82 -314 l35 -77 -55 -58 c-61 -63 -91 -123
-103 -204 -10 -59 -1 -150 17 -184 l12 -21 -278 0 c-308 0 -312 1 -339 65 -20
48 -3 94 62 167 78 89 187 256 223 342 43 103 61 177 68 278 l6 88 -50 52
c-66 70 -87 127 -81 215 6 84 32 137 93 191 55 49 99 62 186 58 49 -2 79 -10
118 -31z m468 -1747 c-27 -65 -220 -476 -299 -638 -92 -188 -101 -211 -105
-276 -6 -85 7 -132 50 -181 63 -72 67 -73 488 -73 437 0 441 1 524 84 27 28
105 133 173 234 68 100 127 182 133 182 5 0 9 -278 9 -725 l0 -726 -892 3
-893 3 -70 24 c-308 103 -545 342 -637 643 -22 72 -22 81 -26 766 l-3 692 777
0 c617 0 775 -3 771 -12z m2226 -412 c298 -156 342 -181 345 -196 3 -21 -460
-277 -522 -289 -77 -14 -127 3 -320 108 -282 155 -301 166 -301 181 0 14 449
261 510 280 65 20 120 5 288 -84z m-615 -453 c263 -137 281 -151 308 -239 17
-59 21 -639 4 -649 -11 -7 -435 225 -496 271 -18 13 -44 47 -58 76 l-26 52 0
301 c0 273 2 315 18 315 3 0 115 -57 250 -127z m1033 -55 c0 -95 2 -223 5
-285 8 -150 -8 -205 -74 -263 -46 -41 -475 -289 -499 -290 -10 0 -13 69 -13
313 0 419 -9 399 245 532 72 38 171 90 220 117 50 26 96 48 103 48 9 0 12 -41
13 -172z m-1713 -1544 c61 -13 162 -58 162 -71 0 -4 -14 -42 -32 -85 -25 -60
-36 -77 -48 -72 -187 77 -321 82 -372 13 -25 -34 -15 -75 25 -99 16 -10 82
-33 146 -51 144 -40 188 -58 235 -100 47 -41 74 -94 82 -161 13 -108 -37 -198
-141 -254 -63 -34 -184 -64 -257 -64 -103 1 -279 49 -330 89 l-22 18 33 79
c18 44 36 82 39 86 4 4 34 -6 67 -22 74 -36 137 -50 218 -49 112 1 169 39 153
102 -8 35 -26 43 -185 89 -204 59 -262 98 -298 204 -32 94 7 233 82 290 103
78 261 99 443 58z m-1439 -4 c86 -12 180 -60 230 -116 53 -60 76 -129 75 -224
-1 -101 -29 -164 -100 -229 -81 -74 -139 -93 -306 -99 l-137 -5 -3 -116 -3
-116 -112 -3 -113 -3 0 454 c0 250 3 457 7 460 10 10 389 8 462 -3z m699 -453
l2 -458 -107 3 -108 3 -3 458 -2 458 107 -3 108 -3 3 -458z m1820 361 l3 -98
-136 0 -135 0 -2 -357 -3 -358 -112 -3 -113 -3 -2 358 -3 358 -140 5 -140 5
-3 83 c-2 54 1 89 9 98 10 12 74 14 393 12 l381 -3 3 -97z m768 -338 c95 -239
173 -445 174 -458 0 -22 -1 -23 -117 -20 l-118 3 -29 83 -28 82 -186 -2 -185
-3 -27 -80 -27 -80 -121 -3 c-79 -2 -122 1 -122 8 0 13 342 879 357 903 2 4
61 6 130 5 l126 -3 173 -435z m-2556 -758 c43 -23 80 -90 80 -146 0 -55 -35
-123 -74 -143 -69 -37 -164 -13 -202 51 -26 44 -25 147 3 184 51 69 125 89
193 54z m950 -17 c37 -35 38 -53 4 -61 -18 -5 -31 -1 -48 15 -32 30 -72 27
-107 -8 -61 -62 -20 -181 63 -181 58 0 95 66 41 72 -20 2 -29 9 -31 26 -3 22
-1 23 60 20 l63 -3 -1 -42 c-1 -46 -22 -84 -59 -109 -32 -21 -112 -21 -153 0
-69 36 -96 167 -49 237 49 74 158 91 217 34z m1625 21 c36 -15 60 -49 51 -72
-8 -20 -33 -17 -63 6 -61 48 -133 0 -133 -87 0 -86 92 -137 139 -77 28 36 26
44 -8 44 -28 0 -47 22 -35 41 3 5 32 9 65 9 l59 0 0 -36 c0 -85 -55 -138 -142
-137 -55 1 -90 20 -119 66 -27 44 -24 164 6 198 51 57 113 72 180 45z m-3590
-21 c27 -27 33 -73 13 -105 -10 -15 -9 -22 5 -38 9 -10 17 -35 17 -54 0 -28
-7 -42 -31 -62 -27 -23 -39 -26 -110 -26 l-79 0 0 155 0 155 80 0 c73 0 83 -3
105 -25z m167 -35 c18 -33 35 -60 38 -60 4 0 19 27 35 60 27 56 31 60 62 60
38 0 41 -11 15 -48 -60 -87 -82 -142 -82 -202 l0 -60 -30 0 c-30 0 -30 0 -30
56 0 47 -7 68 -50 148 -27 51 -50 96 -50 99 0 4 13 7 29 7 26 0 34 -8 63 -60z
m418 -60 l36 -115 33 100 c44 131 46 135 82 135 26 0 30 -3 24 -17 -4 -10 -26
-72 -50 -138 -24 -66 -46 -128 -50 -137 -5 -12 -18 -18 -41 -18 -19 0 -34 2
-34 4 0 2 -22 68 -50 146 -27 78 -50 147 -50 152 0 5 14 8 32 6 31 -3 32 -5
68 -118z m624 83 c9 -21 25 -49 35 -62 l19 -25 31 62 c29 58 33 62 66 62 31 0
34 -2 26 -17 -5 -10 -30 -54 -55 -98 -40 -69 -46 -87 -46 -137 0 -55 -1 -58
-24 -58 -22 0 -25 5 -31 58 -4 41 -19 84 -56 155 l-50 97 34 0 c30 0 36 -5 51
-37z m374 5 c8 -27 70 -194 97 -260 6 -15 2 -18 -27 -18 -28 0 -35 5 -45 30
-10 26 -17 30 -52 32 -23 1 -49 2 -58 2 -11 1 -24 -12 -32 -31 -12 -28 -20
-33 -48 -33 l-33 0 21 53 c12 28 36 94 54 144 42 116 40 113 80 113 30 0 35
-4 43 -32z m712 7 c0 -24 -2 -25 -65 -25 l-65 0 0 -35 0 -34 58 -3 c53 -3 57
-5 57 -28 0 -23 -4 -25 -58 -28 l-58 -3 3 -37 3 -37 63 -3 c58 -3 62 -4 62
-27 0 -25 -1 -25 -95 -25 l-95 0 0 155 0 155 95 0 c95 0 95 0 95 -25z m290 12
c29 -15 55 -76 46 -112 -4 -14 -17 -35 -30 -46 l-24 -21 34 -54 c19 -29 34
-56 34 -59 0 -3 -15 -5 -33 -5 -29 0 -36 6 -65 55 -26 43 -39 55 -58 55 -23 0
-24 -3 -24 -56 0 -54 0 -55 -27 -52 l-28 3 -3 153 -3 152 78 0 c43 0 89 -6
103 -13z m323 1 c46 -24 61 -75 33 -113 -12 -17 -12 -22 5 -44 28 -35 24 -77
-10 -112 -28 -28 -34 -29 -115 -29 l-86 0 0 155 0 155 76 0 c41 0 85 -5 97
-12z m207 -102 c0 -107 1 -116 22 -130 31 -22 61 -20 84 5 15 17 19 40 22 130
l4 109 29 0 29 0 0 -87 c-1 -100 -14 -169 -37 -195 -25 -28 -86 -41 -133 -28
-66 18 -80 51 -80 193 l0 117 30 0 30 0 0 -114z"/>
<path d="M1787 4396 c-72 -26 -140 -93 -172 -169 -18 -43 -20 -150 -3 -198 6
-19 31 -66 55 -104 47 -77 77 -184 67 -245 -24 -158 -59 -226 -180 -351 -70
-73 -94 -104 -99 -131 -15 -80 26 -143 112 -172 68 -23 595 -24 651 0 51 21
91 61 98 100 12 63 -4 93 -96 186 -139 140 -187 254 -178 416 5 84 6 88 98
260 29 53 34 73 34 130 1 163 -130 293 -293 292 -31 -1 -73 -7 -94 -14z"/>
<path d="M4405 4138 c-65 -23 -93 -77 -65 -128 28 -51 200 -67 259 -23 36 28
48 75 27 107 -29 45 -150 69 -221 44z"/>
<path d="M3950 3720 c-27 -27 -27 -107 0 -160 35 -68 105 -86 129 -34 25 56
-1 151 -54 192 -34 27 -49 28 -75 2z"/>
<path d="M4187 3302 c-35 -39 -7 -147 48 -190 34 -27 59 -28 85 -2 24 24 26
67 4 118 -33 81 -99 116 -137 74z"/>
<path d="M4948 3710 c-36 -27 -58 -80 -58 -135 0 -65 13 -85 55 -85 59 0 105
67 105 152 0 79 -48 111 -102 68z"/>
<path d="M4687 3549 c-22 -13 -67 -104 -67 -136 0 -12 5 -34 12 -48 37 -82
158 2 158 110 0 72 -48 106 -103 74z"/>
<path d="M4938 3383 c-63 -65 -79 -149 -33 -179 32 -21 55 -12 99 36 68 75 68
171 1 178 -24 2 -38 -5 -67 -35z"/>
<path d="M1740 1869 l0 -144 102 3 c120 4 164 21 191 73 21 40 18 106 -8 145
-25 39 -79 56 -187 62 l-98 5 0 -144z"/>
<path d="M4909 1802 l-56 -157 110 -3 c60 -1 111 -1 114 1 4 5 -96 298 -106
309 -3 4 -31 -64 -62 -150z"/>
<path d="M2593 945 c-31 -22 -47 -87 -33 -131 29 -87 135 -85 159 3 20 73 -18
143 -79 143 -14 0 -35 -7 -47 -15z"/>
</g>
</svg>
